<?xml version="1.0" standalone="no"?>
<!DOCTYPE svg PUBLIC "-//W3C//DTD SVG 20010904//EN"
    "http://www.w3.org/TR/2001/REC-SVG-20010904/DTD/svg10.dtd">
<svg version="1.0" xmlns="http://www.w3.org/2000/svg"
    width="1000px" height="427px" viewBox="0 0 4550 1942"
    preserveAspectRatio="xMidYMid meet">
    <metadata>
    Created by potrace 1.16, written by Peter Selinger 2001-2019
    </metadata>
    <g transform="translate(0.000000,1942.000000) scale(0.100000,-0.100000)"
    fill="#DADADA" stroke="none">
    <path d="M4540 16846 l0 -2574 -2271 -2248 -2270 -2248 2270 -2270 2271 -2271
    0 -2588 0 -2587 3107 0 3108 0 -91 93 c-50 50 -2129 2169 -4619 4707 -2490
    2538 -4595 4683 -4676 4765 l-149 150 4765 4819 c2621 2650 4765 4820 4765
    4822 0 2 -1397 4 -3105 4 l-3105 0 0 -2574z"/>
    <path d="M10735 14584 l-4785 -4836 1561 -1567 c859 -861 1566 -1567 1573
    -1569 10 -2 12491 12702 12555 12779 l24 29 -3071 0 -3071 0 -4786 -4836z"/>
    <path d="M27795 13890 c-234 -35 -432 -228 -491 -475 -20 -87 -23 -261 -5
    -335 31 -128 125 -246 238 -298 49 -22 75 -27 173 -30 169 -6 271 25 388 118
    211 166 300 503 202 763 -71 189 -272 291 -505 257z"/>
    <path d="M33450 13890 c-252 -32 -454 -235 -506 -508 -52 -274 31 -494 224
    -589 l76 -38 135 0 c119 0 144 3 201 24 171 63 300 197 364 381 25 72 30 104
    34 211 5 144 -6 212 -49 297 -60 121 -174 201 -314 222 -77 11 -85 11 -165 0z"/>
    <path d="M26065 13858 c-3 -18 -66 -413 -140 -877 -74 -464 -136 -845 -138
    -847 -2 -2 -19 20 -37 49 -49 75 -166 187 -235 224 -109 57 -242 79 -383 63
    -262 -30 -475 -176 -664 -459 -178 -266 -292 -595 -345 -991 -22 -172 -25
    -606 -4 -720 62 -340 232 -560 486 -625 88 -22 263 -20 361 5 144 37 262 109
    408 249 l78 76 -6 -40 c-4 -22 -12 -84 -20 -138 l-13 -97 485 2 486 3 322
    2040 c177 1122 325 2057 328 2078 l6 37 -484 0 -485 0 -6 -32z m-515 -2238
    c19 -13 43 -47 58 -79 24 -50 27 -71 30 -196 9 -316 -74 -634 -199 -770 -54
    -59 -86 -75 -147 -75 -140 0 -195 141 -172 443 33 434 175 719 351 704 27 -2
    60 -13 79 -27z"/>
    <path d="M36280 13885 c0 -4 -581 -3678 -644 -4072 l-13 -83 487 0 486 0 18
    118 c25 168 22 163 64 100 61 -92 171 -192 253 -231 95 -45 155 -57 287 -57
    164 0 288 37 422 125 284 186 525 605 624 1088 54 258 78 631 57 847 -41 409
    -213 663 -501 736 -85 22 -252 22 -345 0 -138 -33 -282 -119 -430 -257 -36
    -34 -65 -58 -65 -55 0 10 260 1687 266 1719 l6 27 -486 0 c-267 0 -486 -2
    -486 -5z m949 -2274 c70 -50 97 -167 87 -376 -22 -445 -160 -745 -341 -745
    -137 0 -193 123 -181 396 16 368 120 656 265 735 48 26 126 21 170 -10z"/>
    <path d="M19790 13527 c0 -11 -583 -3695 -596 -3764 l-6 -33 536 0 c295 0 536
    2 536 5 0 9 220 1391 225 1413 l5 22 359 0 359 0 22 148 c13 81 44 282 70 447
    l46 300 -358 3 -358 2 5 23 c3 12 21 123 40 247 19 124 37 235 40 248 l5 22
    413 0 412 0 69 438 c37 240 71 449 73 465 l6 27 -952 0 c-757 0 -951 -3 -951
    -13z"/>
    <path d="M30065 13518 c-3 -13 -138 -860 -300 -1883 -162 -1023 -297 -1870
    -300 -1882 l-5 -23 539 0 539 0 5 28 c2 15 62 391 133 835 75 470 132 800 136
    790 4 -10 64 -385 133 -833 69 -448 127 -816 129 -817 2 -2 264 -2 583 -1
    l579 3 -239 1021 -239 1021 521 866 c287 476 524 873 527 882 6 14 -48 15
    -541 13 l-548 -3 -406 -767 c-223 -422 -407 -766 -408 -764 -2 1 51 345 117
    764 66 419 120 764 120 767 0 3 -241 5 -535 5 l-535 0 -5 -22z"/>
    <path d="M22321 12469 c-299 -59 -544 -285 -735 -679 -142 -292 -213 -593
    -238 -1009 -28 -476 53 -789 256 -978 115 -108 274 -161 451 -150 204 13 357
    86 555 265 90 82 87 85 65 -58 -8 -52 -15 -103 -15 -112 0 -17 30 -18 485 -18
    349 0 485 3 485 11 0 13 407 2599 416 2642 l6 27 -485 0 -485 0 -5 -22 c-3
    -13 -14 -74 -23 -135 -10 -62 -20 -113 -23 -113 -3 1 -28 33 -56 72 -93 132
    -225 224 -362 253 -74 16 -222 18 -292 4z m451 -850 c32 -17 67 -75 84 -140
    21 -83 14 -338 -15 -479 -65 -324 -203 -523 -344 -496 -102 19 -155 165 -142
    391 18 322 114 597 242 698 54 43 123 53 175 26z"/>
    <path d="M35681 12459 c-219 -46 -444 -179 -590 -349 -24 -28 -45 -50 -46 -48
    -2 2 7 68 21 148 13 80 24 157 24 173 l0 27 -458 0 -458 0 -208 -1312 c-115
    -722 -211 -1325 -213 -1340 l-5 -28 496 0 c273 0 496 2 496 4 0 32 196 1255
    211 1316 48 194 145 336 273 399 100 49 250 80 388 81 64 0 67 1 72 28 5 24
    146 911 146 919 0 8 -62 0 -149 -18z"/>
    <path d="M39461 12470 c-239 -51 -433 -194 -603 -449 -224 -335 -339 -723
    -368 -1244 -27 -469 48 -766 241 -960 118 -119 274 -174 464 -164 206 12 375
    95 576 284 l66 62 -18 -122 c-10 -67 -19 -128 -19 -134 0 -10 104 -13 485 -13
    267 0 485 3 485 6 0 4 95 605 210 1336 116 731 210 1331 210 1334 0 2 -218 4
    -484 4 l-484 0 -11 -62 c-6 -35 -16 -96 -23 -135 -7 -40 -15 -73 -18 -73 -3 0
    -17 19 -32 43 -77 121 -205 226 -328 268 -73 24 -271 35 -349 19z m459 -859
    c73 -51 96 -147 87 -368 -6 -160 -24 -270 -64 -397 -96 -304 -266 -429 -387
    -286 -45 54 -60 128 -59 285 2 223 44 426 120 582 36 75 107 164 147 185 55
    30 112 29 156 -1z"/>
    <path d="M42126 12463 c-270 -57 -493 -264 -667 -618 -105 -214 -168 -428
    -205 -705 -25 -182 -26 -573 -1 -694 53 -261 176 -447 349 -529 93 -45 154
    -57 282 -57 215 0 380 74 543 243 47 48 71 67 68 53 -3 -11 -20 -122 -39 -246
    -36 -234 -56 -306 -106 -382 -78 -118 -251 -153 -356 -73 -46 35 -64 74 -64
    140 l0 55 -409 0 c-364 0 -410 -2 -415 -16 -10 -25 -7 -166 5 -251 62 -451
    399 -643 1084 -619 631 22 907 175 1077 597 75 187 98 313 317 1689 116 729
    213 1333 215 1343 4 16 -21 17 -462 15 l-466 -3 -22 -120 c-13 -66 -23 -122
    -24 -124 0 -2 -19 23 -43 55 -62 83 -163 174 -231 207 -113 56 -285 72 -430
    40z m492 -776 c34 -16 68 -82 83 -156 16 -82 5 -313 -20 -441 -50 -248 -151
    -428 -260 -461 -81 -24 -149 19 -182 116 -10 28 -14 90 -14 200 1 234 38 411
    120 575 79 158 175 216 273 167z"/>
    <path d="M27170 12403 c0 -4 -94 -604 -210 -1334 -115 -730 -210 -1329 -210
    -1333 0 -3 221 -6 490 -6 270 0 490 4 490 8 0 5 95 606 210 1336 116 730 210
    1329 210 1332 0 2 -220 4 -490 4 -269 0 -490 -3 -490 -7z"/>
    <path d="M32819 12408 c0 -2 -96 -604 -213 -1338 l-212 -1335 485 -3 c266 -1
    487 0 490 3 6 7 420 2617 421 2653 l0 22 -485 0 c-267 0 -485 -1 -486 -2z"/>
    <path d="M35415 8828 c-8 -18 -336 -706 -729 -1528 -637 -1331 -713 -1495
    -695 -1498 11 -2 22 -2 24 0 6 7 1448 3024 1452 3041 4 12 0 17 -16 17 -15 0
    -26 -10 -36 -32z"/>
    <path d="M21756 8745 c-5 -13 11 -15 104 -15 81 0 110 -3 110 -12 0 -7 -37
    -218 -82 -469 l-82 -457 -43 49 c-25 27 -69 60 -101 76 -50 24 -71 28 -167 31
    -132 5 -218 -13 -314 -63 -144 -76 -257 -200 -346 -380 -149 -302 -180 -705
    -71 -930 44 -92 91 -144 163 -182 79 -42 152 -56 264 -51 80 3 104 9 163 36
    82 39 175 128 224 217 19 35 31 49 28 34 -20 -93 -27 -176 -17 -201 19 -51 53
    -59 238 -56 122 2 167 6 171 16 3 9 -16 12 -75 12 -94 0 -127 14 -131 55 -1
    17 85 535 193 1153 107 617 195 1129 195 1137 0 23 -415 22 -424 0z m-123
    -863 c58 -26 109 -72 136 -124 l23 -43 -75 -440 c-75 -439 -76 -440 -125 -552
    -59 -133 -106 -200 -176 -253 -75 -57 -114 -70 -203 -70 -141 0 -223 61 -266
    195 -20 63 -22 91 -21 265 0 207 11 297 59 478 101 382 292 584 537 568 37 -3
    87 -13 111 -24z"/>
    <path d="M27320 8745 c0 -12 19 -15 111 -15 l111 0 -6 -27 c-3 -16 -91 -526
    -196 -1135 -162 -946 -188 -1111 -178 -1138 17 -51 53 -60 243 -60 140 0 165
    2 165 15 0 12 -15 15 -72 16 -94 1 -121 9 -131 39 -7 18 45 336 182 1128 106
    607 196 1124 200 1148 l8 44 -218 0 c-188 0 -219 -2 -219 -15z"/>
    <path d="M19910 7627 c-244 -199 -445 -367 -447 -373 -4 -13 613 -727 631
    -731 6 -2 17 1 25 6 10 7 -60 95 -289 361 -166 193 -300 357 -297 363 3 7 194
    165 425 352 232 187 421 345 421 351 1 6 -5 16 -12 22 -10 9 -114 -71 -457
    -351z"/>
    <path d="M35791 7981 c-7 -5 -12 -14 -10 -19 2 -6 137 -165 299 -353 162 -188
    296 -345 298 -349 1 -4 -191 -164 -427 -355 -369 -300 -428 -352 -420 -367 5
    -10 13 -18 17 -18 7 0 854 688 884 718 15 16 -2 39 -288 367 -357 410 -335
    387 -353 376z"/>
    <path d="M23083 7931 c-373 -101 -621 -522 -600 -1021 9 -206 53 -325 161
    -428 71 -68 139 -106 228 -127 82 -19 222 -19 308 1 159 36 302 168 351 325
    23 75 23 79 1 79 -14 0 -23 -14 -35 -59 -34 -122 -139 -237 -257 -282 -76 -29
    -231 -24 -305 10 -131 58 -201 188 -226 418 -27 249 24 559 127 771 82 169
    211 273 367 295 108 15 180 -2 232 -57 22 -23 46 -60 53 -83 18 -59 15 -162
    -7 -232 -66 -212 -237 -310 -543 -311 -89 0 -108 -3 -108 -15 0 -13 21 -15
    133 -15 364 0 607 100 699 288 30 61 33 74 33 162 0 86 -3 99 -28 143 -33 56
    -87 98 -166 128 -82 32 -315 37 -418 10z"/>
    <path d="M24942 7939 c2 -7 18 -17 35 -21 53 -14 125 -70 150 -117 47 -90 25
    -249 -57 -416 -47 -97 -480 -779 -480 -758 0 31 -182 1203 -191 1231 -18 54
    -47 62 -224 62 -124 0 -155 -3 -155 -14 0 -9 18 -15 54 -19 73 -7 91 -19 110
    -69 8 -24 65 -349 126 -723 60 -374 112 -690 115 -702 3 -15 13 -23 26 -23 15
    0 84 97 296 418 151 229 301 460 333 512 180 297 241 500 175 578 -38 45 -96
    64 -214 70 -84 4 -103 2 -99 -9z"/>
    <path d="M26170 7931 c-236 -64 -432 -260 -530 -529 -52 -142 -72 -268 -72
    -442 0 -240 39 -358 157 -475 102 -101 218 -145 385 -145 164 0 287 48 390
    150 60 60 115 159 126 228 6 38 4 42 -13 42 -16 0 -22 -9 -27 -38 -16 -105
    -124 -240 -232 -292 -66 -32 -216 -40 -297 -16 -114 33 -198 133 -238 281 -27
    103 -37 338 -19 485 49 422 220 686 474 731 261 45 380 -135 275 -416 -16 -44
    -38 -76 -83 -121 -103 -102 -190 -132 -408 -141 -115 -5 -148 -9 -148 -19 0
    -11 28 -14 133 -14 310 1 496 57 628 189 82 83 111 149 112 261 0 87 -18 138
    -66 188 -78 81 -178 112 -362 111 -83 0 -140 -6 -185 -18z"/>
    <path d="M28650 7934 c-303 -81 -530 -372 -595 -764 -21 -123 -16 -342 9 -433
    50 -181 159 -307 315 -365 89 -33 273 -42 375 -18 295 70 518 340 602 731 25
    120 24 365 -4 466 -56 209 -177 335 -367 384 -76 19 -261 19 -335 -1z m318
    -50 c130 -63 189 -243 179 -544 -12 -359 -109 -662 -263 -829 -72 -77 -134
    -114 -221 -131 -113 -22 -239 17 -297 93 -124 162 -135 581 -25 942 80 261
    226 446 388 492 67 19 174 9 239 -23z"/>
    <path d="M30548 7931 c-110 -35 -205 -114 -273 -226 -29 -48 -36 -54 -31 -30
    3 17 13 71 21 120 9 50 19 98 21 108 5 16 -8 17 -212 15 -163 -2 -218 -6 -222
    -15 -3 -10 23 -13 108 -13 l112 0 -6 -32 c-3 -18 -87 -499 -186 -1068 -99
    -569 -183 -1047 -186 -1062 l-6 -28 106 0 c101 0 106 1 111 23 3 12 32 182 65
    377 33 195 62 365 65 377 5 20 9 18 50 -26 28 -30 69 -60 108 -77 58 -27 70
    -29 187 -29 101 0 138 4 195 22 83 26 175 83 252 156 170 160 287 440 315 750
    33 362 -76 604 -297 662 -81 21 -225 19 -297 -4z m219 -62 c121 -60 174 -237
    159 -524 -14 -260 -63 -471 -148 -645 -63 -128 -157 -230 -253 -275 -71 -34
    -206 -46 -279 -25 -58 16 -134 75 -168 130 l-27 45 75 430 c68 393 78 439 116
    530 65 158 106 218 196 287 105 81 226 98 329 47z"/>
    <path d="M32162 7930 c-119 -31 -205 -83 -308 -185 -135 -133 -218 -288 -265
    -494 -30 -128 -37 -371 -15 -481 56 -275 245 -429 529 -430 226 0 390 94 477
    275 48 100 58 145 31 145 -15 0 -24 -16 -40 -69 -38 -126 -149 -241 -266 -276
    -74 -23 -203 -19 -272 6 -68 26 -139 89 -176 157 -52 95 -71 206 -71 407 1
    358 87 638 245 798 79 79 149 115 253 130 141 20 231 -21 276 -125 42 -98 14
    -270 -63 -376 -88 -124 -247 -182 -493 -182 -77 0 -94 -3 -94 -15 0 -13 21
    -15 133 -15 292 0 499 62 625 187 126 125 149 320 52 443 -36 46 -130 95 -209
    110 -89 17 -266 11 -349 -10z"/>
    <path d="M33866 7935 c-105 -37 -196 -150 -272 -338 -16 -38 -30 -64 -32 -59
    -3 9 30 268 45 350 l5 32 -198 -2 c-147 -2 -198 -6 -202 -15 -3 -10 23 -13
    107 -13 62 0 111 -4 111 -9 0 -5 -58 -342 -130 -748 -71 -406 -130 -744 -130
    -750 0 -10 27 -13 103 -13 l102 0 89 513 c86 492 91 517 137 630 107 268 217
    389 326 361 58 -15 78 -51 77 -142 -1 -92 -29 -167 -80 -212 -45 -39 -44 -53
    4 -44 138 25 236 105 262 215 25 104 -12 199 -92 238 -53 25 -170 28 -232 6z"/>
    <path d="M13325 5921 c-979 -999 -1780 -1822 -1780 -1828 0 -6 891 -929 1980
    -2051 l1980 -2041 3608 0 c2335 -1 3607 2 3605 9 -6 19 -7590 7730 -7601 7729
    -7 0 -813 -818 -1792 -1818z"/>
    </g>
</svg>
